<?xml version="1.0" encoding="UTF-8"?>
<!DOCTYPE svg PUBLIC "-//W3C//DTD SVG 1.1//EN" "http://www.w3.org/Graphics/SVG/1.1/DTD/svg11.dtd">
<svg xmlns="http://www.w3.org/2000/svg" version="1.1" width="108px" height="108px" style="shape-rendering:geometricPrecision; text-rendering:geometricPrecision; image-rendering:optimizeQuality; fill-rule:evenodd; clip-rule:evenodd" xmlns:xlink="http://www.w3.org/1999/xlink">
<g><path style="opacity:0.999" fill="#5e17eb" d="M 14.5,-0.5 C 40.1667,-0.5 65.8333,-0.5 91.5,-0.5C 90.3034,2.38189 88.3034,4.54856 85.5,6C 80.0502,6.75503 74.7169,6.25503 69.5,4.5C 66.0213,5.29885 63.3546,7.29885 61.5,10.5C 48.3396,11.1667 35.3396,11.8333 22.5,12.5C 20.2163,12.9752 18.2163,13.9752 16.5,15.5C 16.6354,10.0495 15.9687,4.71617 14.5,-0.5 Z"/></g>
<g><path style="opacity:0.976" fill="#915bf9" d="M 91.5,-0.5 C 92.5,-0.5 93.5,-0.5 94.5,-0.5C 92.4149,3.17897 89.7483,6.34564 86.5,9C 83.8333,9.66667 81.1667,9.66667 78.5,9C 72.4355,5.01064 67.1021,5.67731 62.5,11C 69.346,11.1717 76.0126,11.6717 82.5,12.5C 62.5,12.5 42.5,12.5 22.5,12.5C 35.3396,11.8333 48.3396,11.1667 61.5,10.5C 63.3546,7.29885 66.0213,5.29885 69.5,4.5C 74.7169,6.25503 80.0502,6.75503 85.5,6C 88.3034,4.54856 90.3034,2.38189 91.5,-0.5 Z"/></g>
<g><path style="opacity:0.98" fill="#5e17eb" d="M 11.5,0.5 C 12.498,7.13836 12.6646,13.805 12,20.5C 9.26054,25.2568 5.09387,27.2568 -0.5,26.5C -0.5,21.5 -0.5,16.5 -0.5,11.5C 1.57282,5.76162 5.57282,2.09495 11.5,0.5 Z"/></g>
<g><path style="opacity:0.994" fill="#5f19eb" d="M 94.5,-0.5 C 94.8333,-0.5 95.1667,-0.5 95.5,-0.5C 101.167,1.83333 105.167,5.83333 107.5,11.5C 107.5,27.5 107.5,43.5 107.5,59.5C 102.623,60.9368 97.9561,62.9368 93.5,65.5C 92.7025,65.0431 92.3691,64.3764 92.5,63.5C 92.5569,62.391 92.8902,61.391 93.5,60.5C 94.9382,56.7264 97.6049,54.3931 101.5,53.5C 101.5,51.8333 101.5,50.1667 101.5,48.5C 98.0125,47.8566 95.5125,45.8566 94,42.5C 91.466,34.2145 89.966,25.8812 89.5,17.5C 88.4042,14.2274 86.0709,12.5607 82.5,12.5C 76.0126,11.6717 69.346,11.1717 62.5,11C 67.1021,5.67731 72.4355,5.01064 78.5,9C 81.1667,9.66667 83.8333,9.66667 86.5,9C 89.7483,6.34564 92.4149,3.17897 94.5,-0.5 Z"/></g>
<g><path style="opacity:1" fill="#f9f6fd" d="M 22.5,12.5 C 42.5,12.5 62.5,12.5 82.5,12.5C 86.0709,12.5607 88.4042,14.2274 89.5,17.5C 89.6641,20.1873 89.4974,22.854 89,25.5C 85.7212,24.2028 82.8879,24.8695 80.5,27.5C 75.508,28.332 70.508,28.9986 65.5,29.5C 55.6356,27.6373 45.6356,26.9706 35.5,27.5C 34.8321,30.2448 33.4988,32.7448 31.5,35C 26.5977,36.6425 21.5977,37.8091 16.5,38.5C 16.6495,39.552 16.4828,40.552 16,41.5C 15.023,39.26 14.523,36.9267 14.5,34.5C 14.5,33.5 14.5,32.5 14.5,31.5C 15.2588,26.3021 15.9254,20.9687 16.5,15.5C 18.2163,13.9752 20.2163,12.9752 22.5,12.5 Z"/></g>
<g><path style="opacity:1" fill="#8d54fd" d="M 11.5,-0.5 C 12.5,-0.5 13.5,-0.5 14.5,-0.5C 15.9687,4.71617 16.6354,10.0495 16.5,15.5C 15.9254,20.9687 15.2588,26.3021 14.5,31.5C 14.6633,29.1432 14.4966,26.8098 14,24.5C 10.4576,29.3 5.62426,31.3 -0.5,30.5C -0.5,29.1667 -0.5,27.8333 -0.5,26.5C 5.09387,27.2568 9.26054,25.2568 12,20.5C 12.6646,13.805 12.498,7.13836 11.5,0.5C 11.5,0.166667 11.5,-0.166667 11.5,-0.5 Z"/></g>
<g><path style="opacity:0.998" fill="#5f19eb" d="M 14.5,31.5 C 14.5,32.5 14.5,33.5 14.5,34.5C 13.653,37.8165 12.4863,41.1498 11,44.5C 9.58674,46.4136 7.7534,47.7469 5.5,48.5C 5.16667,49.3333 4.83333,50.1667 4.5,51C 7.98833,53.8365 10.8217,57.3365 13,61.5C 14.1733,68.4371 14.84,75.4371 15,82.5C 15.5133,83.5266 16.0133,84.5266 16.5,85.5C 17.5794,87.543 19.246,88.8763 21.5,89.5C 27.9874,90.3283 34.654,90.8283 41.5,91C 28.405,96.6268 14.7383,98.7934 0.5,97.5C 0.67158,96.5084 0.338246,95.8417 -0.5,95.5C -0.5,73.8333 -0.5,52.1667 -0.5,30.5C 5.62426,31.3 10.4576,29.3 14,24.5C 14.4966,26.8098 14.6633,29.1432 14.5,31.5 Z"/></g>
<g><path style="opacity:1" fill="#6522eb" d="M 35.5,27.5 C 45.6356,26.9706 55.6356,27.6373 65.5,29.5C 70.5787,33.8168 71.7454,39.1501 69,45.5C 67.3626,47.8102 65.196,49.3102 62.5,50C 67.6484,51.3164 70.9818,54.483 72.5,59.5C 73.6192,67.7701 70.2859,73.2701 62.5,76C 53.8397,76.4998 45.1731,76.6664 36.5,76.5C 35.5036,60.3419 35.1702,44.0085 35.5,27.5 Z"/></g>
<g><path style="opacity:1" fill="#f4edfc" d="M 43.5,33.5 C 48.9302,33.161 54.2636,33.661 59.5,35C 63.9191,39.8191 63.2524,43.8191 57.5,47C 52.8452,47.4992 48.1785,47.6658 43.5,47.5C 43.5,42.8333 43.5,38.1667 43.5,33.5 Z"/></g>
<g><path style="opacity:1" fill="#f3e9fc" d="M 89.5,17.5 C 89.966,25.8812 91.466,34.2145 94,42.5C 95.5125,45.8566 98.0125,47.8566 101.5,48.5C 101.5,50.1667 101.5,51.8333 101.5,53.5C 97.6049,54.3931 94.9382,56.7264 93.5,60.5C 92.8501,60.1961 92.1835,59.8627 91.5,59.5C 85.7159,62.3922 79.7159,64.7255 73.5,66.5C 73.8016,63.9407 73.4682,61.6074 72.5,59.5C 70.9818,54.483 67.6484,51.3164 62.5,50C 65.196,49.3102 67.3626,47.8102 69,45.5C 71.7454,39.1501 70.5787,33.8168 65.5,29.5C 70.508,28.9986 75.508,28.332 80.5,27.5C 82.8879,24.8695 85.7212,24.2028 89,25.5C 89.4974,22.854 89.6641,20.1873 89.5,17.5 Z"/></g>
<g><path style="opacity:1" fill="#f5edfc" d="M 35.5,27.5 C 35.1702,44.0085 35.5036,60.3419 36.5,76.5C 38.6979,77.1653 41.0312,77.8319 43.5,78.5C 43.3333,78.8333 43.1667,79.1667 43,79.5C 42.2753,78.9415 41.4419,78.6082 40.5,78.5C 36.9968,79.7706 33.4968,81.1039 30,82.5C 28.9125,80.0684 28.4125,80.4017 28.5,83.5C 26.5082,83.3285 24.8415,83.9951 23.5,85.5C 21.1772,84.3284 18.8439,84.3284 16.5,85.5C 16.0133,84.5266 15.5133,83.5266 15,82.5C 14.84,75.4371 14.1733,68.4371 13,61.5C 10.8217,57.3365 7.98833,53.8365 4.5,51C 4.83333,50.1667 5.16667,49.3333 5.5,48.5C 7.7534,47.7469 9.58674,46.4136 11,44.5C 12.4863,41.1498 13.653,37.8165 14.5,34.5C 14.523,36.9267 15.023,39.26 16,41.5C 16.4828,40.552 16.6495,39.552 16.5,38.5C 21.5977,37.8091 26.5977,36.6425 31.5,35C 33.4988,32.7448 34.8321,30.2448 35.5,27.5 Z"/></g>
<g><path style="opacity:1" fill="#f2e8fb" d="M 43.5,54.5 C 48.8437,54.334 54.1771,54.5006 59.5,55C 64.1447,57.0246 65.6447,60.5246 64,65.5C 63.1667,66.3333 62.3333,67.1667 61.5,68C 55.5933,69.3608 49.5933,69.8608 43.5,69.5C 43.5,64.5 43.5,59.5 43.5,54.5 Z"/></g>
<g><path style="opacity:1" fill="#efe2fb" d="M 72.5,59.5 C 73.4682,61.6074 73.8016,63.9407 73.5,66.5C 79.7159,64.7255 85.7159,62.3922 91.5,59.5C 92.1835,59.8627 92.8501,60.1961 93.5,60.5C 92.8902,61.391 92.5569,62.391 92.5,63.5C 91.5489,64.9187 91.2155,66.5853 91.5,68.5C 90.7648,73.7846 90.2648,79.118 90,84.5C 88.1433,87.1998 85.6433,88.8665 82.5,89.5C 62.1667,89.5 41.8333,89.5 21.5,89.5C 19.246,88.8763 17.5794,87.543 16.5,85.5C 18.8439,84.3284 21.1772,84.3284 23.5,85.5C 24.8415,83.9951 26.5082,83.3285 28.5,83.5C 28.4125,80.4017 28.9125,80.0684 30,82.5C 33.4968,81.1039 36.9968,79.7706 40.5,78.5C 41.4419,78.6082 42.2753,78.9415 43,79.5C 43.1667,79.1667 43.3333,78.8333 43.5,78.5C 41.0312,77.8319 38.6979,77.1653 36.5,76.5C 45.1731,76.6664 53.8397,76.4998 62.5,76C 70.2859,73.2701 73.6192,67.7701 72.5,59.5 Z"/></g>
<g><path style="opacity:0.997" fill="#601aeb" d="M 107.5,61.5 C 107.5,72.8333 107.5,84.1667 107.5,95.5C 105.167,101.167 101.167,105.167 95.5,107.5C 67.5,107.5 39.5,107.5 11.5,107.5C 6.92599,105.928 3.59265,102.928 1.5,98.5C 16.8429,100.402 31.5096,97.9023 45.5,91C 58.0068,90.8308 70.3401,90.3308 82.5,89.5C 85.6433,88.8665 88.1433,87.1998 90,84.5C 90.2648,79.118 90.7648,73.7846 91.5,68.5C 96.5947,65.6193 101.928,63.2859 107.5,61.5 Z"/></g>
<g><path style="opacity:1" fill="#8a50fc" d="M 107.5,59.5 C 107.5,60.1667 107.5,60.8333 107.5,61.5C 101.928,63.2859 96.5947,65.6193 91.5,68.5C 91.2155,66.5853 91.5489,64.9187 92.5,63.5C 92.3691,64.3764 92.7025,65.0431 93.5,65.5C 97.9561,62.9368 102.623,60.9368 107.5,59.5 Z"/></g>
<g><path style="opacity:1" fill="#8347f5" d="M 21.5,89.5 C 41.8333,89.5 62.1667,89.5 82.5,89.5C 70.3401,90.3308 58.0068,90.8308 45.5,91C 31.5096,97.9023 16.8429,100.402 1.5,98.5C 0.833333,98.5 0.5,98.1667 0.5,97.5C 14.7383,98.7934 28.405,96.6268 41.5,91C 34.654,90.8283 27.9874,90.3283 21.5,89.5 Z"/></g>
</svg>
